<svg width="73" height="16" viewBox="0 0 73 16" fill="none" xmlns="http://www.w3.org/2000/svg">
<path d="M20.4 12.678L22.92 5.028H25.602L21.912 15H18.852L15.18 5.028H17.88L20.4 12.678ZM26.3694 9.978C26.3694 8.97 26.5674 8.076 26.9634 7.296C27.3714 6.516 27.9174 5.916 28.6014 5.496C29.2974 5.076 30.0714 4.866 30.9234 4.866C31.6674 4.866 32.3154 5.016 32.8674 5.316C33.4314 5.616 33.8814 5.994 34.2174 6.45V5.028H36.7554V15H34.2174V13.542C33.8934 14.01 33.4434 14.4 32.8674 14.712C32.3034 15.012 31.6494 15.162 30.9054 15.162C30.0654 15.162 29.2974 14.946 28.6014 14.514C27.9174 14.082 27.3714 13.476 26.9634 12.696C26.5674 11.904 26.3694 10.998 26.3694 9.978ZM34.2174 10.014C34.2174 9.402 34.0974 8.88 33.8574 8.448C33.6174 8.004 33.2934 7.668 32.8854 7.44C32.4774 7.2 32.0394 7.08 31.5714 7.08C31.1034 7.08 30.6714 7.194 30.2754 7.422C29.8794 7.65 29.5554 7.986 29.3034 8.43C29.0634 8.862 28.9434 9.378 28.9434 9.978C28.9434 10.578 29.0634 11.106 29.3034 11.562C29.5554 12.006 29.8794 12.348 30.2754 12.588C30.6834 12.828 31.1154 12.948 31.5714 12.948C32.0394 12.948 32.4774 12.834 32.8854 12.606C33.2934 12.366 33.6174 12.03 33.8574 11.598C34.0974 11.154 34.2174 10.626 34.2174 10.014Z" fill="white"/>
<path d="M42.1506 7.098V11.922C42.1506 12.258 42.2286 12.504 42.3846 12.66C42.5526 12.804 42.8286 12.876 43.2126 12.876H44.3826V15H42.7986C40.6746 15 39.6126 13.968 39.6126 11.904V7.098H38.4246V5.028H39.6126V2.562H42.1506V5.028H44.3826V7.098H42.1506ZM47.4731 3.84C47.0291 3.84 46.6571 3.702 46.3571 3.426C46.0691 3.138 45.9251 2.784 45.9251 2.364C45.9251 1.944 46.0691 1.596 46.3571 1.32C46.6571 1.032 47.0291 0.887999 47.4731 0.887999C47.9171 0.887999 48.2831 1.032 48.5711 1.32C48.8711 1.596 49.0211 1.944 49.0211 2.364C49.0211 2.784 48.8711 3.138 48.5711 3.426C48.2831 3.702 47.9171 3.84 47.4731 3.84ZM48.7151 5.028V15H46.1951V5.028H48.7151ZM55.6329 15.162C54.6729 15.162 53.8089 14.952 53.0409 14.532C52.2729 14.1 51.6669 13.494 51.2229 12.714C50.7909 11.934 50.5749 11.034 50.5749 10.014C50.5749 8.994 50.7969 8.094 51.2409 7.314C51.6969 6.534 52.3149 5.934 53.0949 5.514C53.8749 5.082 54.7449 4.866 55.7049 4.866C56.6649 4.866 57.5349 5.082 58.3149 5.514C59.0949 5.934 59.7069 6.534 60.1509 7.314C60.6069 8.094 60.8349 8.994 60.8349 10.014C60.8349 11.034 60.6009 11.934 60.1329 12.714C59.6769 13.494 59.0529 14.1 58.2609 14.532C57.4809 14.952 56.6049 15.162 55.6329 15.162ZM55.6329 12.966C56.0889 12.966 56.5149 12.858 56.9109 12.642C57.3189 12.414 57.6429 12.078 57.8829 11.634C58.1229 11.19 58.2429 10.65 58.2429 10.014C58.2429 9.066 57.9909 8.34 57.4869 7.836C56.9949 7.32 56.3889 7.062 55.6689 7.062C54.9489 7.062 54.3429 7.32 53.8509 7.836C53.3709 8.34 53.1309 9.066 53.1309 10.014C53.1309 10.962 53.3649 11.694 53.8329 12.21C54.3129 12.714 54.9129 12.966 55.6329 12.966ZM68.2094 4.884C69.3974 4.884 70.3574 5.262 71.0894 6.018C71.8214 6.762 72.1874 7.806 72.1874 9.15V15H69.6674V9.492C69.6674 8.7 69.4694 8.094 69.0734 7.674C68.6774 7.242 68.1374 7.026 67.4534 7.026C66.7574 7.026 66.2054 7.242 65.7974 7.674C65.4014 8.094 65.2034 8.7 65.2034 9.492V15H62.6834V5.028H65.2034V6.27C65.5394 5.838 65.9654 5.502 66.4814 5.262C67.0094 5.01 67.5854 4.884 68.2094 4.884Z" fill="#5CE1E6"/>
<path d="M15 7.5C15 11.6421 11.6421 15 7.5 15C3.35786 15 0 11.6421 0 7.5C0 3.35786 3.35786 0 7.5 0C11.6421 0 15 3.35786 15 7.5ZM3.75 7.5C3.75 9.57107 5.42893 11.25 7.5 11.25C9.57107 11.25 11.25 9.57107 11.25 7.5C11.25 5.42893 9.57107 3.75 7.5 3.75C5.42893 3.75 3.75 5.42893 3.75 7.5Z" fill="white"/>
<path d="M7.5 0C5.51088 -2.37201e-08 3.60322 0.790176 2.1967 2.1967C0.790177 3.60322 1.73895e-07 5.51088 0 7.5C-1.73895e-07 9.48912 0.790176 11.3968 2.1967 12.8033C3.60322 14.2098 5.51088 15 7.5 15L7.5 11.25C6.50544 11.25 5.55161 10.8549 4.84835 10.1517C4.14509 9.44839 3.75 8.49456 3.75 7.5C3.75 6.50544 4.14509 5.55161 4.84835 4.84835C5.55161 4.14509 6.50544 3.75 7.5 3.75L7.5 0Z" fill="#5CE1E6"/>
<circle cx="7.5" cy="7.5" r="1.5" fill="#5CE1E6"/>
<path d="M7.50961 6.00481C7.31263 6.00418 7.11745 6.04235 6.93522 6.11715C6.75299 6.19195 6.58728 6.30191 6.44755 6.44075C6.30781 6.57959 6.1968 6.74459 6.12083 6.92634C6.04487 7.10808 6.00544 7.30301 6.00481 7.49999C6.00418 7.69697 6.04235 7.89215 6.11715 8.07438C6.19195 8.25661 6.30191 8.42232 6.44075 8.56206C6.57959 8.70179 6.74459 8.81281 6.92634 8.88877C7.10808 8.96474 7.30301 9.00416 7.49999 9.00479L7.5048 7.5048L7.50961 6.00481Z" fill="white"/>
</svg>
