<svg width="15" height="15" viewBox="0 0 15 15" fill="none" xmlns="http://www.w3.org/2000/svg">
<path d="M15 7.5C15 11.6421 11.6421 15 7.5 15C3.35786 15 0 11.6421 0 7.5C0 3.35786 3.35786 0 7.5 0C11.6421 0 15 3.35786 15 7.5ZM3.75 7.5C3.75 9.57107 5.42893 11.25 7.5 11.25C9.57107 11.25 11.25 9.57107 11.25 7.5C11.25 5.42893 9.57107 3.75 7.5 3.75C5.42893 3.75 3.75 5.42893 3.75 7.5Z" fill="white"/>
<path d="M7.5 0C5.51088 -2.37201e-08 3.60322 0.790176 2.1967 2.1967C0.790177 3.60322 1.73895e-07 5.51088 0 7.5C-1.73895e-07 9.48912 0.790176 11.3968 2.1967 12.8033C3.60322 14.2098 5.51088 15 7.5 15L7.5 11.25C6.50544 11.25 5.55161 10.8549 4.84835 10.1517C4.14509 9.44839 3.75 8.49456 3.75 7.5C3.75 6.50544 4.14509 5.55161 4.84835 4.84835C5.55161 4.14509 6.50544 3.75 7.5 3.75L7.5 0Z" fill="#5CE1E6"/>
<circle cx="7.5" cy="7.5" r="1.5" fill="#5CE1E6"/>
<path d="M7.50961 6.00481C7.31263 6.00418 7.11745 6.04235 6.93522 6.11715C6.75299 6.19195 6.58728 6.30191 6.44755 6.44075C6.30781 6.57959 6.1968 6.74459 6.12083 6.92634C6.04487 7.10808 6.00544 7.30301 6.00481 7.49999C6.00418 7.69697 6.04235 7.89215 6.11715 8.07438C6.19195 8.25661 6.30191 8.42232 6.44075 8.56206C6.57959 8.70179 6.74459 8.81281 6.92634 8.88877C7.10808 8.96474 7.30301 9.00416 7.49999 9.00479L7.5048 7.5048L7.50961 6.00481Z" fill="white"/>
</svg>
